<!--?xml version="1.0" encoding="utf-8"?-->
<!-- Generator: Adobe Illustrator 18.1.1, SVG Export Plug-In . SVG Version: 6.00 Build 0)  -->

<svg version="1.1" id="_x32_" xmlns="http://www.w3.org/2000/svg" xmlns:xlink="http://www.w3.org/1999/xlink" x="0px" y="0px" viewBox="0 0 512 512" style="width: 256px; height: 256px; opacity: 1;" xml:space="preserve">
<style type="text/css">
	.st0{fill:#4B4B4B;}
</style>
<g>
	<path class="st0" d="M511.888,236.577l-0.525-7.706c-0.716-10.506-5.519-19.93-12.677-26.571
		c-7.126-6.656-16.813-10.72-27.232-10.72l-1.462,0.048H42.024l-1.48-0.048c-10.434,0-20.105,4.064-27.247,10.72
		c-7.158,6.642-11.961,16.066-12.662,26.571L0,238.128l0.175,1.543c5.217,47.241,23.238,90.664,50.502,126.628
		c24.59,32.472,56.72,58.884,93.798,76.739l-1.67,12.804c-0.366,2.442-0.764,4.939-1.098,7.564
		c-0.334,2.672-0.621,5.479-0.621,8.588c0.016,3.794,0.414,8.2,2.275,12.972c1.4,3.548,3.738,7.166,6.776,10.029
		c2.274,2.147,4.851,3.872,7.492,5.177c3.992,1.972,8.096,3.086,12.391,3.802c4.31,0.7,8.86,0.986,13.95,0.986h138.955
		c6.028-0.008,11.325-0.397,16.32-1.432c3.754-0.779,7.396-1.941,10.896-3.81c2.624-1.392,5.169-3.221,7.365-5.464
		c3.308-3.34,5.614-7.57,6.807-11.492c1.209-3.952,1.496-7.555,1.496-10.769c0-3.109-0.287-5.916-0.621-8.588
		c-0.318-2.625-0.716-5.122-1.082-7.564l-1.368-10.498c38.254-17.457,71.482-43.965,96.916-76.826
		c28.186-36.4,46.844-80.644,52.172-128.847l0.175-1.543L511.888,236.577z M322.925,470.285H183.97c-3.563,0-6.251-0.223-8.08-0.501
		c0.048-0.613,0.127-1.281,0.223-2.044c0.238-1.909,0.604-4.239,1.002-6.887l0.016-0.167l2.78-21.306h147.075l2.779,21.306
		l0.016,0.167c0.398,2.648,0.763,4.978,1.002,6.887c0.112,0.763,0.175,1.439,0.223,2.052
		C329.175,470.07,326.472,470.285,322.925,470.285z M432.231,347.291c-24.4,31.534-57.086,56.339-94.736,71.148l-11.83,4.652
		H182.037l0.183-1.416l-12.2-5.113c-36.504-15.294-68.11-40.052-91.714-71.204c-7.333-9.686-13.787-20.041-19.477-30.865H75.22
		c0.89,0,1.622-0.731,1.622-1.63v-37.021h30.412v26.404h-8.43v-15.445c0-0.898-0.732-1.63-1.638-1.63H86.561
		c-0.906,0-1.638,0.732-1.638,1.63v26.062c0,0.899,0.732,1.63,1.638,1.63h32.974c0.89,0,1.622-0.731,1.622-1.63v-47.638
		c0-0.899-0.732-1.63-1.622-1.63h-54.94c-0.907,0-1.638,0.731-1.638,1.63v37.021H52.868c-1.384-3.078-2.756-6.172-4-9.321h4.37
		c0.907,0,1.638-0.732,1.638-1.63v-26.07c0-0.899-0.731-1.63-1.638-1.63H39.606c-2.076-8.598-3.738-17.361-4.788-26.324l0.414-6.029
		c0.112-1.471,0.7-2.609,1.686-3.547c1.002-0.923,2.227-1.432,3.626-1.44l0.35,0.016l0.557,0.032h429.097l0.541-0.032l0.366-0.016
		c1.4,0.008,2.609,0.517,3.611,1.44c1.002,0.938,1.59,2.084,1.702,3.547l0.414,6.012c-1.05,8.971-2.724,17.736-4.804,26.341h-35.613
		c-0.891,0-1.622,0.731-1.622,1.63v37.021H404.73v-26.404h8.446v15.453c0,0.898,0.731,1.63,1.622,1.63h10.625
		c0.906,0,1.638-0.732,1.638-1.63v-26.07c0-0.899-0.732-1.63-1.638-1.63h-32.958c-0.906,0-1.638,0.731-1.638,1.63v47.638
		c0,0.899,0.731,1.63,1.638,1.63h54.94c0.891,0,1.622-0.731,1.622-1.63v-37.021h19.99c-0.955,3.134-1.937,6.251-3.022,9.329h-7.249
		c-0.891,0-1.622,0.732-1.622,1.63v19.867C450.248,321.119,441.933,334.75,432.231,347.291z" style="fill: rgb(255, 143, 0);"></path>
	<path class="st0" d="M243.585,263.594h-54.939c-0.891,0-1.622,0.731-1.622,1.63v37.021h-30.429v-26.404h8.446v15.453
		c0,0.898,0.732,1.63,1.622,1.63h10.641c0.891,0,1.622-0.732,1.622-1.63v-26.07c0-0.899-0.732-1.63-1.622-1.63h-32.973
		c-0.891,0-1.622,0.731-1.622,1.63v47.638c0,0.899,0.731,1.63,1.622,1.63h54.955c0.89,0,1.622-0.731,1.622-1.63v-37.021h30.412
		v26.404h-8.43v-15.445c0-0.898-0.732-1.63-1.638-1.63h-10.641c-0.89,0-1.622,0.732-1.622,1.63v26.062
		c0,0.899,0.732,1.63,1.622,1.63h32.973c0.907,0,1.638-0.731,1.638-1.63v-47.638C245.224,264.325,244.492,263.594,243.585,263.594z" style="fill: rgb(255, 143, 0);"></path>
	<path class="st0" d="M367.653,263.594h-54.94c-0.906,0-1.638,0.731-1.638,1.63v37.021h-30.412v-26.404h8.43v15.453
		c0,0.898,0.732,1.63,1.638,1.63h10.625c0.907,0,1.638-0.732,1.638-1.63v-26.07c0-0.899-0.732-1.63-1.638-1.63h-32.957
		c-0.907,0-1.638,0.731-1.638,1.63v47.638c0,0.899,0.732,1.63,1.638,1.63h54.94c0.906,0,1.638-0.731,1.638-1.63v-37.021h30.412
		v26.404h-8.446v-15.445c0-0.898-0.732-1.63-1.622-1.63h-10.642c-0.89,0-1.622,0.732-1.622,1.63v26.062
		c0,0.899,0.732,1.63,1.622,1.63h32.974c0.89,0,1.622-0.731,1.622-1.63v-47.638C369.275,264.325,368.543,263.594,367.653,263.594z" style="fill: rgb(255, 143, 0);"></path>
	<path class="st0" d="M145.158,89.605c4.2,9.465,6.044,16.137,6.124,23.382c0.095,7.174-1.591,14.602-3.276,21.1
		c-3.596,13.034-6.363,22.428-2.895,24.813c3.181,2.235,11.977-2.537,21.648-15.627c4.644-6.609,9.655-15.644,11.612-27.804
		c2.226-12.136-1.066-26.817-6.124-37.618c-4.979-11.047-8.987-18.586-10.578-25.553c-1.75-6.887-1.67-13.798-0.986-20.264
		c1.542-12.908,3.754-22.523,0.064-24.615c-3.276-1.924-11.977,3.372-19.931,18.221c-3.802,7.388-7.094,18.077-6.092,30.436
		C135.552,68.467,141.055,80.34,145.158,89.605z" style="fill: rgb(255, 143, 0);"></path>
	<path class="st0" d="M244.349,89.605c4.199,9.465,6.044,16.137,6.108,23.382c0.111,7.174-1.575,14.602-3.261,21.1
		c-3.595,13.034-6.362,22.428-2.895,24.813c3.181,2.235,11.977-2.537,21.648-15.627c4.645-6.609,9.655-15.644,11.596-27.804
		c2.227-12.136-1.066-26.817-6.124-37.618c-4.963-11.047-8.971-18.586-10.562-25.553c-1.75-6.887-1.67-13.798-0.986-20.264
		c1.543-12.908,3.754-22.523,0.048-24.615c-3.276-1.924-11.961,3.372-19.93,18.221c-3.786,7.388-7.078,18.077-6.076,30.436
		C234.742,68.467,240.245,80.34,244.349,89.605z" style="fill: rgb(255, 143, 0);"></path>
	<path class="st0" d="M343.523,89.605c4.214,9.465,6.06,16.137,6.124,23.382c0.095,7.174-1.574,14.602-3.261,21.1
		c-3.595,13.034-6.362,22.428-2.911,24.813c3.197,2.235,11.994-2.537,21.664-15.627c4.644-6.609,9.654-15.644,11.595-27.804
		c2.227-12.136-1.066-26.817-6.124-37.618c-4.962-11.047-8.971-18.586-10.561-25.553c-1.75-6.887-1.67-13.798-0.986-20.264
		c1.542-12.908,3.753-22.523,0.047-24.615c-3.276-1.924-11.961,3.372-19.93,18.221c-3.802,7.388-7.078,18.077-6.076,30.436
		C333.932,68.467,339.435,80.34,343.523,89.605z" style="fill: rgb(255, 143, 0);"></path>
</g>
</svg>
